<svg width="348" height="246" viewBox="0 0 348 246" fill="none" xmlns="http://www.w3.org/2000/svg">
<path d="M0 50.75H254.268V245.982H0V50.75Z" fill="url(#paint0_radial_216_614)"/>
<path d="M96.3213 0H348V228.893H96.3213V0Z" fill="url(#paint1_radial_216_614)"/>
<path d="M178.864 100.558C180.328 97.1919 177.839 95.7282 177.839 95.7282C175.206 93.8255 173.449 95.7282 173.449 95.7282C171.985 96.8991 172.424 99.6797 172.424 99.6797C174.474 100.558 178.864 100.558 178.864 100.558Z" fill="#0D0D0D"/>
<path d="M178.133 102.606C178.133 102.606 174.767 102.313 171.987 101.435C171.987 101.435 169.06 104.655 173.889 112.411C174.035 112.411 175.791 104.216 178.133 102.606Z" fill="#0D0D0D"/>
<path d="M269.741 159.239C271.058 159.678 272.522 159.824 273.839 159.678C275.741 159.532 277.497 158.8 274.716 156.459C269.594 152.361 249.692 138.02 249.692 138.02C249.692 138.02 256.863 150.46 258.034 155.728C258.034 155.728 265.205 157.776 269.741 159.239Z" fill="#0D0D0D"/>
<path d="M285.985 213.385L262.278 171.385C255.839 172.556 246.328 169.483 246.328 169.483L284.376 217.043C284.961 217.628 285.84 217.775 286.571 217.336C287.74 216.604 285.985 213.384 285.985 213.384L285.985 213.385Z" fill="#0D0D0D"/>
<path d="M230.083 165.093C221.302 162.459 212.229 152.801 212.229 152.801C197.303 136.118 198.034 120.167 198.034 120.167C198.034 120.167 198.034 126.606 204.912 138.166C207.254 139.776 211.79 141.825 215.303 138.166C215.303 138.166 221.449 143.874 226.132 138.459C226.132 138.459 233.449 141.093 233.303 134.069C233.303 134.069 234.767 134.362 236.084 134.508C230.523 121.923 221.304 109.923 221.304 109.923C229.646 117.825 236.231 129.533 239.45 135.679C242.67 141.825 242.67 143.728 242.67 143.728L255.694 154.264C251.596 144.753 242.231 128.07 239.45 125.143C236.817 122.216 225.548 106.266 221.597 103.631C220.133 102.606 218.963 101.582 217.938 100.557C217.5 100.703 217.354 100.703 217.354 100.703L214.427 101.728C213.402 102.167 212.524 102.753 211.939 103.631C210.476 105.534 207.403 106.118 207.403 106.118C209.013 105.241 210.477 103.338 211.355 102.021C211.939 101.143 212.818 100.411 213.988 99.9722L215.891 99.2403C216.184 99.2403 216.476 99.0944 216.623 99.0944C215.891 98.2165 215.452 97.6305 215.452 97.6305C214.867 96.1667 214.281 94.8498 213.549 93.533C211.939 96.7525 209.745 97.7764 209.745 97.7764L207.111 99.5321C206.233 100.117 205.501 100.996 205.062 102.02C204.184 104.214 201.258 105.532 201.258 105.532C202.722 104.215 203.599 102.02 204.184 100.557C204.623 99.532 205.355 98.6542 206.233 97.9233L207.989 96.7525C210.183 95.8746 211.501 93.6788 212.379 91.4842C211.062 89.2896 209.453 87.3867 208.282 85.9231C208.136 92.3623 204.623 94.5568 204.623 94.5568L202.282 96.6055C201.404 97.3374 200.965 98.2153 200.672 99.3863C200.087 101.728 197.306 103.484 197.306 103.484C198.477 102.02 199.209 99.6792 199.501 98.2155C199.794 97.0447 200.233 96.1668 201.111 95.289L202.575 93.8252C205.794 91.9225 206.526 87.386 206.526 84.1666C204.912 82.4108 204.18 81.6789 204.18 81.6789C203.595 81.24 203.009 80.947 202.424 80.5081C204.327 88.8499 200.083 92.0683 200.083 92.0683L198.034 94.41C197.302 95.2879 196.863 96.1658 196.717 97.3365C196.424 99.6782 193.937 101.727 193.937 101.727C194.961 100.117 195.4 97.7756 195.546 96.1658C195.692 94.995 196.131 93.9711 196.863 93.0922L198.18 91.4824C201.692 88.7017 201.399 82.7015 200.814 79.6292C199.35 78.8973 198.033 78.3124 196.716 78.0194C200.521 87.3851 194.374 90.0197 194.374 90.0197C198.179 85.7764 196.13 80.0692 194.959 77.7275C193.351 77.2896 192.034 77.1426 190.717 77.1426C195.692 83.1427 192.327 88.2641 191.449 89.2887C191.449 89.2887 192.474 85.6303 192.474 84.6054C192.474 81.5317 189.986 78.8981 188.23 77.2884C181.645 78.0203 176.816 81.9718 175.06 84.8983C172.134 90.0207 174.329 92.8001 174.329 92.8001C179.743 90.6054 183.109 98.2144 180.768 101.873C178.28 105.531 176.816 110.946 176.816 110.946C177.255 115.336 180.182 124.409 180.182 124.409L181.207 120.75C181.207 123.97 183.109 136.848 183.109 136.848C186.036 149.288 199.646 162.165 204.767 164.799C209.011 166.994 214.133 172.116 218.962 173.141C218.669 173.726 218.084 174.458 216.914 175.19C212.523 178.116 208.133 180.604 208.133 180.604C208.133 180.604 202.718 182.068 200.231 183.237C197.743 184.408 198.767 187.335 198.767 187.335C198.767 185.871 203.89 184.701 206.084 185.14C208.279 185.579 212.523 184.115 212.523 184.115C214.279 185.286 224.231 185.579 224.231 185.579L227.596 186.75C227.596 186.75 227.303 185.286 225.694 183.531C223.938 181.775 222.035 183.092 218.377 181.775C214.718 180.458 216.913 179.141 216.913 179.141C216.913 179.141 220.278 177.239 223.498 175.483C225.108 174.605 225.108 173.288 224.815 172.263C229.937 170.361 235.058 166.702 235.058 166.702L230.083 165.093ZM182.23 115.777C181.645 115.192 180.913 111.679 182.669 112.264C182.669 112.264 184.279 112.703 184.279 113.728C184.279 114.753 182.815 116.362 182.23 115.777ZM185.449 92.9479C185.449 91.7771 186.327 90.8992 187.498 90.8992C188.669 90.8992 189.547 91.7771 189.547 92.9479C189.547 94.1187 188.669 94.9966 187.498 94.9966C186.327 94.9966 185.449 94.1187 185.449 92.9479ZM190.132 118.703C189.4 119.435 187.498 117.533 187.498 116.07C187.498 114.606 189.693 114.167 189.693 114.167C191.888 113.289 190.864 117.972 190.132 118.703Z" fill="#0D0D0D"/>
<path d="M237.986 148.556C239.741 146.069 239.449 144.605 239.449 144.605C238.865 141.971 237.986 139.337 236.816 136.556H235.499C235.499 136.556 235.499 139.19 232.134 140.947C228.768 142.702 226.719 141.678 226.719 141.678C226.719 141.678 222.329 143.581 220.134 143.142C217.94 142.703 215.744 141.24 215.744 141.24C215.742 141.24 212.522 143.288 210.034 142.995C209.157 142.849 208.279 142.556 207.401 142.263C208.279 143.727 209.45 145.19 210.475 146.654C223.059 163.483 250.425 168.166 260.084 168.752C269.595 169.191 274.571 164.068 269.449 163.337C264.327 162.605 256.279 157.63 256.279 157.63L242.816 146.801L242.523 148.265C237.841 157.629 219.255 149.58 214.719 147.386C220.865 150.019 236.377 150.898 237.986 148.556H237.986Z" fill="#0D0D0D"/>
<path d="M156.579 100.557C155.115 97.1917 157.604 95.728 157.604 95.728C160.237 93.8252 161.994 95.728 161.994 95.728C163.458 96.8989 163.019 99.6795 163.019 99.6795C160.969 100.557 156.579 100.557 156.579 100.557Z" fill="#0D0D0D"/>
<path d="M157.311 102.606C157.311 102.606 160.676 102.313 163.457 101.435C163.457 101.435 166.383 104.655 161.554 112.411C161.408 112.411 159.652 104.216 157.311 102.606Z" fill="#0D0D0D"/>
<path d="M65.7035 159.239C64.3867 159.678 62.9228 159.824 61.6061 159.678C59.7034 159.532 57.9476 158.8 60.7282 156.459C65.8505 152.361 85.7524 138.02 85.7524 138.02C85.7524 138.02 78.5816 150.46 77.4107 155.728C77.4107 155.728 70.24 157.776 65.7035 159.239Z" fill="#0D0D0D"/>
<path d="M49.4602 213.385L73.1667 171.385C79.6058 172.556 89.1172 169.483 89.1172 169.483L51.0694 217.043C50.4845 217.628 49.6056 217.775 48.8748 217.336C47.705 216.604 49.4607 213.384 49.4607 213.384L49.4602 213.385Z" fill="#0D0D0D"/>
<path d="M105.36 165.093C114.141 162.459 123.213 152.801 123.213 152.801C138.14 136.118 137.408 120.167 137.408 120.167C137.408 120.167 137.408 126.606 130.53 138.166C128.189 139.776 123.652 141.825 120.14 138.166C120.14 138.166 113.994 143.874 109.311 138.459C109.311 138.459 101.994 141.093 102.14 134.069C102.14 134.069 100.676 134.362 99.3591 134.508C104.92 121.923 114.139 109.923 114.139 109.923C105.797 117.825 99.2122 129.533 95.9928 135.679C92.7734 141.825 92.7734 143.728 92.7734 143.728L79.7493 154.264C83.8468 144.753 93.2124 128.07 95.9928 125.143C98.6264 122.216 109.895 106.266 113.846 103.631C115.31 102.606 116.48 101.582 117.504 100.557C117.943 100.703 118.089 100.703 118.089 100.703L121.016 101.728C122.041 102.167 122.919 102.753 123.503 103.631C124.967 105.534 128.04 106.118 128.04 106.118C126.43 105.241 124.966 103.338 124.088 102.021C123.503 101.143 122.624 100.411 121.455 99.9722L119.552 99.2403C119.259 99.2403 118.967 99.0944 118.82 99.0944C119.552 98.2165 119.991 97.6305 119.991 97.6305C120.576 96.1667 121.162 94.8498 121.894 93.533C123.503 96.7525 125.698 97.7764 125.698 97.7764L128.332 99.5321C129.21 100.117 129.941 100.996 130.38 102.02C131.258 104.214 134.185 105.532 134.185 105.532C132.721 104.215 131.843 102.02 131.258 100.557C130.819 99.532 130.088 98.6542 129.21 97.9233L127.454 96.7525C125.259 95.8746 123.942 93.6788 123.064 91.4842C124.38 89.2896 125.99 87.3867 127.161 85.9231C127.307 92.3623 130.82 94.5568 130.82 94.5568L133.161 96.6055C134.039 97.3374 134.478 98.2153 134.771 99.3863C135.356 101.728 138.136 103.484 138.136 103.484C136.966 102.02 136.234 99.6792 135.942 98.2155C135.649 97.0447 135.21 96.1668 134.332 95.289L132.868 93.8252C129.649 91.9225 128.917 87.386 128.917 84.1666C130.531 82.4108 131.263 81.6789 131.263 81.6789C131.847 81.24 132.433 80.947 133.018 80.5081C131.116 88.8499 135.36 92.0683 135.36 92.0683L137.409 94.41C138.141 95.2879 138.579 96.1658 138.725 97.3365C139.018 99.6782 141.506 101.727 141.506 101.727C140.481 100.117 140.042 97.7756 139.896 96.1658C139.75 94.995 139.311 93.9711 138.58 93.0922L137.263 91.4824C133.75 88.7017 134.043 82.7015 134.629 79.6292C136.093 78.8973 137.41 78.3124 138.727 78.0194C134.922 87.3851 141.068 90.0197 141.068 90.0197C137.264 85.7764 139.313 80.0692 140.483 77.7275C142.092 77.2896 143.409 77.1426 144.726 77.1426C139.75 83.1427 143.116 88.2641 143.994 89.2887C143.994 89.2887 142.969 85.6303 142.969 84.6054C142.969 81.5317 145.456 78.8981 147.212 77.2884C153.797 78.0203 158.626 81.9718 160.382 84.8983C163.308 90.0207 161.114 92.8001 161.114 92.8001C155.7 90.6054 152.333 98.2144 154.675 101.873C157.162 105.531 158.626 110.946 158.626 110.946C158.187 115.336 155.261 124.409 155.261 124.409L154.236 120.75C154.236 123.97 152.333 136.848 152.333 136.848C149.407 149.288 135.797 162.165 130.675 164.799C126.432 166.994 121.31 172.116 116.481 173.141C116.774 173.726 117.358 174.458 118.529 175.19C122.92 178.116 127.31 180.604 127.31 180.604C127.31 180.604 132.724 182.068 135.212 183.237C137.699 184.408 136.676 187.335 136.676 187.335C136.676 185.871 131.553 184.701 129.359 185.14C127.164 185.579 122.92 184.115 122.92 184.115C121.164 185.286 111.212 185.579 111.212 185.579L107.847 186.75C107.847 186.75 108.14 185.286 109.749 183.531C111.505 181.775 113.408 183.092 117.066 181.775C120.725 180.458 118.53 179.141 118.53 179.141C118.53 179.141 115.165 177.239 111.945 175.483C110.335 174.605 110.335 173.288 110.628 172.263C105.506 170.361 100.385 166.702 100.385 166.702L105.36 165.093ZM153.213 115.777C153.798 115.192 154.529 111.679 152.774 112.264C152.774 112.264 151.164 112.703 151.164 113.728C151.164 114.753 152.628 116.362 153.213 115.777ZM149.993 92.9479C149.993 91.7771 149.115 90.8992 147.945 90.8992C146.774 90.8992 145.896 91.7771 145.896 92.9479C145.896 94.1187 146.774 94.9966 147.945 94.9966C149.115 94.9966 149.993 94.1187 149.993 92.9479ZM146.061 110.536C146.793 111.268 148.695 109.365 148.695 107.903C148.695 106.439 146.5 106 146.5 106C144.304 105.122 145.329 109.805 146.061 110.536Z" fill="#0D0D0D"/>
<path d="M97.4581 148.556C95.7023 146.069 95.9943 144.605 95.9943 144.605C96.5792 141.971 97.4581 139.337 98.6278 136.556H99.9446C99.9446 136.556 99.9446 139.19 103.31 140.947C106.676 142.702 108.724 141.678 108.724 141.678C108.724 141.678 113.115 143.581 115.309 143.142C117.504 142.703 119.7 141.24 119.7 141.24C119.702 141.24 122.921 143.288 125.409 142.995C126.287 142.849 127.165 142.556 128.042 142.263C127.165 143.727 125.994 145.19 124.969 146.654C112.385 163.483 85.0187 168.166 75.3604 168.752C65.849 169.191 60.8728 164.068 65.9948 163.337C71.1172 162.605 79.1647 157.63 79.1647 157.63L92.6277 146.801L92.9207 148.265C97.603 157.629 116.188 149.58 120.725 147.386C114.579 150.019 99.0671 150.898 97.4574 148.556H97.4581Z" fill="#0D0D0D"/>
<defs>
<radialGradient id="paint0_radial_216_614" cx="0" cy="0" r="1" gradientUnits="userSpaceOnUse" gradientTransform="translate(127.134 148.366) rotate(90) scale(97.6161 127.134)">
<stop stop-color="#317168"/>
<stop offset="1" stop-color="#317168" stop-opacity="0"/>
</radialGradient>
<radialGradient id="paint1_radial_216_614" cx="0" cy="0" r="1" gradientUnits="userSpaceOnUse" gradientTransform="translate(222.161 114.446) rotate(90) scale(114.446 125.839)">
<stop stop-color="#927A46" stop-opacity="0.82"/>
<stop offset="1" stop-color="#927A46" stop-opacity="0"/>
</radialGradient>
</defs>
</svg>
