<svg width="302" height="25" viewBox="0 0 302 25" fill="none" xmlns="http://www.w3.org/2000/svg">
<path d="M293.625 0.9375C294.023 0.9375 294.305 1.03125 294.469 1.21875C294.645 1.39453 294.732 1.69922 294.732 2.13281V21.6094H300.375C300.773 21.6094 301.055 21.7031 301.219 21.8906C301.395 22.0664 301.482 22.3711 301.482 22.8047C301.482 23.2383 301.395 23.5488 301.219 23.7363C301.055 23.9121 300.773 24 300.375 24H286.594C286.195 24 285.908 23.9121 285.732 23.7363C285.568 23.5488 285.486 23.2383 285.486 22.8047C285.486 22.3711 285.568 22.0664 285.732 21.8906C285.908 21.7031 286.195 21.6094 286.594 21.6094H292.096V3.32812H287.297C286.898 3.32812 286.611 3.24023 286.436 3.06445C286.271 2.87695 286.189 2.56641 286.189 2.13281C286.189 1.69922 286.271 1.39453 286.436 1.21875C286.611 1.03125 286.898 0.9375 287.297 0.9375H293.625Z" fill="white"/>
<path d="M276.74 7.37109C278.439 7.37109 279.887 7.7168 281.082 8.4082C282.289 9.08789 283.215 10.0371 283.859 11.2559C284.504 12.4629 284.873 13.8574 284.967 15.4395C284.967 15.8379 284.879 16.1191 284.703 16.2832C284.539 16.4473 284.258 16.5293 283.859 16.5293H271.133C271.215 18.2754 271.73 19.5996 272.68 20.502C273.641 21.3926 274.994 21.8379 276.74 21.8379C277.818 21.8379 278.885 21.7031 279.939 21.4336C280.994 21.1523 281.92 20.7832 282.717 20.3262C282.916 20.2207 283.098 20.168 283.262 20.168C283.672 20.168 284.006 20.4785 284.264 21.0996C284.369 21.3457 284.422 21.5684 284.422 21.7676C284.422 22.2363 284.164 22.5996 283.648 22.8574C282.746 23.3145 281.68 23.6836 280.449 23.9648C279.219 24.2461 277.982 24.3867 276.74 24.3867C274.971 24.3867 273.459 24.0469 272.205 23.3672C270.951 22.6875 269.996 21.709 269.34 20.4316C268.684 19.1543 268.355 17.6367 268.355 15.8789C268.355 14.2031 268.713 12.7207 269.428 11.4316C270.143 10.1426 271.133 9.14648 272.398 8.44336C273.664 7.72852 275.111 7.37109 276.74 7.37109ZM276.74 9.91992C275.299 9.91992 274.104 10.2891 273.154 11.0273C272.217 11.7539 271.602 12.7676 271.309 14.0684H282.049C281.803 12.7207 281.234 11.6953 280.344 10.9922C279.465 10.2773 278.264 9.91992 276.74 9.91992Z" fill="white"/>
<path d="M260.629 7.75781C261.027 7.75781 261.309 7.85156 261.473 8.03906C261.648 8.21484 261.736 8.51953 261.736 8.95312V21.6094H267.379C267.777 21.6094 268.059 21.7031 268.223 21.8906C268.398 22.0664 268.486 22.3711 268.486 22.8047C268.486 23.2383 268.398 23.5488 268.223 23.7363C268.059 23.9121 267.777 24 267.379 24H253.598C253.199 24 252.912 23.9121 252.736 23.7363C252.572 23.5488 252.49 23.2383 252.49 22.8047C252.49 22.3711 252.572 22.0664 252.736 21.8906C252.912 21.7031 253.199 21.6094 253.598 21.6094H259.1V10.1484H254.652C254.254 10.1484 253.967 10.0605 253.791 9.88477C253.627 9.69727 253.545 9.38672 253.545 8.95312C253.545 8.51953 253.627 8.21484 253.791 8.03906C253.967 7.85156 254.254 7.75781 254.652 7.75781H260.629ZM260.066 0.0410156C260.711 0.0410156 261.15 0.128906 261.385 0.304688C261.619 0.46875 261.736 0.761719 261.736 1.18359V3.46875C261.736 3.89062 261.619 4.18945 261.385 4.36523C261.15 4.5293 260.711 4.61133 260.066 4.61133C259.422 4.61133 258.982 4.5293 258.748 4.36523C258.514 4.18945 258.396 3.89062 258.396 3.46875V1.18359C258.396 0.761719 258.514 0.46875 258.748 0.304688C258.982 0.128906 259.422 0.0410156 260.066 0.0410156Z" fill="white"/>
<path d="M242.396 7.37109C243.463 7.37109 244.389 7.60547 245.174 8.07422C245.959 8.53125 246.562 9.19336 246.984 10.0605C247.406 10.9277 247.617 11.9414 247.617 13.1016V21.6094H249.059C249.457 21.6094 249.738 21.7031 249.902 21.8906C250.078 22.0664 250.166 22.3711 250.166 22.8047C250.166 23.2383 250.078 23.5488 249.902 23.7363C249.738 23.9121 249.457 24 249.059 24H243.363C242.965 24 242.678 23.9121 242.502 23.7363C242.338 23.5488 242.256 23.2383 242.256 22.8047C242.256 22.3711 242.338 22.0664 242.502 21.8906C242.678 21.7031 242.965 21.6094 243.363 21.6094H244.98V13.3652C244.98 12.3223 244.74 11.4961 244.26 10.8867C243.779 10.2773 243.07 9.97266 242.133 9.97266C241.137 9.97266 240.205 10.2598 239.338 10.834C238.482 11.4082 237.797 12.1992 237.281 13.207C236.766 14.2148 236.508 15.3398 236.508 16.582V21.6094H238.125C238.523 21.6094 238.805 21.7031 238.969 21.8906C239.145 22.0664 239.232 22.3711 239.232 22.8047C239.232 23.2383 239.145 23.5488 238.969 23.7363C238.805 23.9121 238.523 24 238.125 24H232.43C232.031 24 231.744 23.9121 231.568 23.7363C231.404 23.5488 231.322 23.2383 231.322 22.8047C231.322 22.3711 231.404 22.0664 231.568 21.8906C231.744 21.7031 232.031 21.6094 232.43 21.6094H233.871V10.1484H232.078C231.68 10.1484 231.393 10.0605 231.217 9.88477C231.053 9.69727 230.971 9.38672 230.971 8.95312C230.971 8.51953 231.053 8.21484 231.217 8.03906C231.393 7.85156 231.68 7.75781 232.078 7.75781H235.225C235.623 7.75781 235.904 7.85156 236.068 8.03906C236.244 8.21484 236.332 8.51953 236.332 8.95312V11.0625C237.105 9.86719 238.008 8.95312 239.039 8.32031C240.082 7.6875 241.201 7.37109 242.396 7.37109Z" fill="white"/>
<path d="M219.895 7.37109C222.098 7.37109 223.75 7.86328 224.852 8.84766C225.953 9.83203 226.504 11.291 226.504 13.2246V20.2207C226.504 21.1465 226.891 21.6094 227.664 21.6094H228.279C228.678 21.6094 228.959 21.7031 229.123 21.8906C229.299 22.0664 229.387 22.3711 229.387 22.8047C229.387 23.2383 229.299 23.5488 229.123 23.7363C228.959 23.9121 228.678 24 228.279 24H227.154C226.393 24 225.736 23.8125 225.186 23.4375C224.646 23.0508 224.295 22.4883 224.131 21.75C223.17 22.5938 222.127 23.2441 221.002 23.7012C219.889 24.1582 218.705 24.3867 217.451 24.3867C216.268 24.3867 215.219 24.1875 214.305 23.7891C213.402 23.3789 212.693 22.7871 212.178 22.0137C211.662 21.2402 211.404 20.3203 211.404 19.2539C211.404 17.4023 212.066 16.0371 213.391 15.1582C214.715 14.2676 216.426 13.8223 218.523 13.8223C220.387 13.8223 222.168 14.1211 223.867 14.7188V13.2246C223.867 12.0879 223.545 11.2559 222.9 10.7285C222.268 10.1895 221.242 9.91992 219.824 9.91992C218.945 9.91992 218.031 10.043 217.082 10.2891C216.133 10.5352 215.23 10.875 214.375 11.3086C214.176 11.4141 213.994 11.4668 213.83 11.4668C213.443 11.4668 213.121 11.1855 212.863 10.623C212.734 10.3418 212.67 10.1074 212.67 9.91992C212.67 9.50977 212.887 9.19336 213.32 8.9707C214.305 8.45508 215.359 8.0625 216.484 7.79297C217.621 7.51172 218.758 7.37109 219.895 7.37109ZM218.541 16.3008C217.193 16.3008 216.127 16.5352 215.342 17.0039C214.568 17.4609 214.182 18.1934 214.182 19.2012C214.182 20.0566 214.475 20.7246 215.061 21.2051C215.658 21.6738 216.49 21.9082 217.557 21.9082C219.889 21.9082 221.992 20.9414 223.867 19.0078V17.0918C223.07 16.834 222.215 16.6406 221.301 16.5117C220.387 16.3711 219.467 16.3008 218.541 16.3008Z" fill="white"/>
<path d="M206.373 0.9375C206.771 0.9375 207.053 1.03125 207.217 1.21875C207.393 1.39453 207.48 1.69922 207.48 2.13281V21.6094H208.922C209.32 21.6094 209.602 21.7031 209.766 21.8906C209.941 22.0664 210.029 22.3711 210.029 22.8047C210.029 23.2383 209.941 23.5488 209.766 23.7363C209.602 23.9121 209.32 24 208.922 24H206.127C205.729 24 205.441 23.9121 205.266 23.7363C205.102 23.5488 205.02 23.2383 205.02 22.8047V21.3984C204.281 22.3594 203.426 23.0977 202.453 23.6133C201.48 24.1289 200.42 24.3867 199.271 24.3867C197.818 24.3867 196.518 24.0469 195.369 23.3672C194.221 22.6758 193.318 21.6914 192.662 20.4141C192.006 19.125 191.678 17.6133 191.678 15.8789C191.678 14.1445 192.006 12.6387 192.662 11.3613C193.318 10.0723 194.221 9.08789 195.369 8.4082C196.518 7.7168 197.818 7.37109 199.271 7.37109C201.475 7.37109 203.332 8.33789 204.844 10.2715V3.32812H201.996C201.598 3.32812 201.311 3.24023 201.135 3.06445C200.971 2.87695 200.889 2.56641 200.889 2.13281C200.889 1.69922 200.971 1.39453 201.135 1.21875C201.311 1.03125 201.598 0.9375 201.996 0.9375H206.373ZM199.447 9.97266C198.404 9.97266 197.508 10.2246 196.758 10.7285C196.008 11.2207 195.434 11.9121 195.035 12.8027C194.648 13.6934 194.455 14.7188 194.455 15.8789C194.455 17.0391 194.648 18.0645 195.035 18.9551C195.434 19.8457 196.008 20.543 196.758 21.0469C197.508 21.5391 198.404 21.7852 199.447 21.7852C200.49 21.7852 201.416 21.5508 202.225 21.082C203.045 20.6133 203.684 19.9336 204.141 19.043C204.609 18.1523 204.844 17.0977 204.844 15.8789C204.844 14.6602 204.609 13.6055 204.141 12.7148C203.684 11.8242 203.045 11.1445 202.225 10.6758C201.416 10.207 200.49 9.97266 199.447 9.97266Z" fill="white"/>
<path d="M170.053 7.37109C171.119 7.37109 172.045 7.60547 172.83 8.07422C173.615 8.53125 174.219 9.19336 174.641 10.0605C175.062 10.9277 175.273 11.9414 175.273 13.1016V21.6094H197.715C198.113 21.6094 198.395 21.7031 198.559 21.8906C198.734 22.0664 198.822 22.3711 198.822 22.8047C198.822 23.2383 198.734 23.5488 198.559 23.7363C198.395 23.9121 198.113 24 197.715 24H171.02C170.621 24 170.334 23.9121 170.158 23.7363C169.994 23.5488 169.912 23.2383 169.912 22.8047C169.912 22.3711 169.994 22.0664 170.158 21.8906C170.334 21.7031 170.621 21.6094 171.02 21.6094H172.637V13.3652C172.637 12.3223 172.396 11.4961 171.916 10.8867C171.436 10.2773 170.727 9.97266 169.789 9.97266C168.793 9.97266 167.861 10.2598 166.994 10.834C166.139 11.4082 165.453 12.1992 164.938 13.207C164.422 14.2148 164.164 15.3398 164.164 16.582V21.6094H165.781C166.18 21.6094 166.461 21.7031 166.625 21.8906C166.801 22.0664 166.889 22.3711 166.889 22.8047C166.889 23.2383 166.801 23.5488 166.625 23.7363C166.461 23.9121 166.18 24 165.781 24H160.086C159.688 24 159.4 23.9121 159.225 23.7363C159.061 23.5488 158.979 23.2383 158.979 22.8047C158.979 22.3711 159.061 22.0664 159.225 21.8906C159.4 21.7031 159.688 21.6094 160.086 21.6094H161.527V10.1484H159.734C159.336 10.1484 159.049 10.0605 158.873 9.88477C158.709 9.69727 158.627 9.38672 158.627 8.95312C158.627 8.51953 158.709 8.21484 158.873 8.03906C159.049 7.85156 159.336 7.75781 159.734 7.75781H162.881C163.279 7.75781 163.561 7.85156 163.725 8.03906C163.9 8.21484 163.988 8.51953 163.988 8.95312V11.0625C164.762 9.86719 165.664 8.95312 166.695 8.32031C167.738 7.6875 168.857 7.37109 170.053 7.37109Z" fill="white"/>
<path d="M133.965 7.37109C136.168 7.37109 137.82 7.86328 138.922 8.84766C140.023 9.83203 140.574 11.291 140.574 13.2246V20.2207C140.574 21.1465 140.961 21.6094 141.734 21.6094H161.35C161.748 21.6094 162.029 21.7031 162.193 21.8906C162.369 22.0664 162.457 22.3711 162.457 22.8047C162.457 23.2383 162.369 23.5488 162.193 23.7363C162.029 23.9121 161.748 24 161.35 24H141.225C140.463 24 139.807 23.8125 139.256 23.4375C138.717 23.0508 138.365 22.4883 138.201 21.75C137.24 22.5938 136.197 23.2441 135.072 23.7012C133.959 24.1582 132.775 24.3867 131.521 24.3867C130.338 24.3867 129.289 24.1875 128.375 23.7891C127.473 23.3789 126.764 22.7871 126.248 22.0137C125.732 21.2402 125.475 20.3203 125.475 19.2539C125.475 17.4023 126.137 16.0371 127.461 15.1582C128.785 14.2676 130.496 13.8223 132.594 13.8223C134.457 13.8223 136.238 14.1211 137.938 14.7188V13.2246C137.938 12.0879 137.615 11.2559 136.971 10.7285C136.338 10.1895 135.312 9.91992 133.895 9.91992C133.016 9.91992 132.102 10.043 131.152 10.2891C130.203 10.5352 129.301 10.875 128.445 11.3086C128.246 11.4141 128.064 11.4668 127.9 11.4668C127.514 11.4668 127.191 11.1855 126.934 10.623C126.805 10.3418 126.74 10.1074 126.74 9.91992C126.74 9.50977 126.957 9.19336 127.391 8.9707C128.375 8.45508 129.43 8.0625 130.555 7.79297C131.691 7.51172 132.828 7.37109 133.965 7.37109ZM132.611 16.3008C131.264 16.3008 130.197 16.5352 129.412 17.0039C128.639 17.4609 128.252 18.1934 128.252 19.2012C128.252 20.0566 128.545 20.7246 129.131 21.2051C129.729 21.6738 130.561 21.9082 131.627 21.9082C133.959 21.9082 136.062 20.9414 137.938 19.0078V17.0918C137.141 16.834 136.285 16.6406 135.371 16.5117C134.457 16.3711 133.537 16.3008 132.611 16.3008Z" fill="white"/>
<path d="M115.766 0.9375C116.164 0.9375 116.445 1.03125 116.609 1.21875C116.785 1.39453 116.873 1.69922 116.873 2.13281V21.6094H122.516C122.914 21.6094 123.195 21.7031 123.359 21.8906C123.535 22.0664 123.623 22.3711 123.623 22.8047C123.623 23.2383 123.535 23.5488 123.359 23.7363C123.195 23.9121 122.914 24 122.516 24H108.734C108.336 24 108.049 23.9121 107.873 23.7363C107.709 23.5488 107.627 23.2383 107.627 22.8047C107.627 22.3711 107.709 22.0664 107.873 21.8906C108.049 21.7031 108.336 21.6094 108.734 21.6094H114.236V3.32812H109.438C109.039 3.32812 108.752 3.24023 108.576 3.06445C108.412 2.87695 108.33 2.56641 108.33 2.13281C108.33 1.69922 108.412 1.39453 108.576 1.21875C108.752 1.03125 109.039 0.9375 109.438 0.9375H115.766Z" fill="white"/>
<path d="M101.18 0.9375C101.578 0.9375 101.859 1.03125 102.023 1.21875C102.199 1.39453 102.287 1.69922 102.287 2.13281V21.6094H107.93C108.328 21.6094 108.609 21.7031 108.773 21.8906C108.949 22.0664 109.037 22.3711 109.037 22.8047C109.037 23.2383 108.949 23.5488 108.773 23.7363C108.609 23.9121 108.328 24 107.93 24H94.1484C93.75 24 93.4629 23.9121 93.2871 23.7363C93.123 23.5488 93.041 23.2383 93.041 22.8047C93.041 22.3711 93.123 22.0664 93.2871 21.8906C93.4629 21.7031 93.75 21.6094 94.1484 21.6094H99.6504V3.32812H94.8516C94.4531 3.32812 94.166 3.24023 93.9902 3.06445C93.8262 2.87695 93.7441 2.56641 93.7441 2.13281C93.7441 1.69922 93.8262 1.39453 93.9902 1.21875C94.166 1.03125 94.4531 0.9375 94.8516 0.9375H101.18Z" fill="white"/>
<path d="M83.2949 7.37109C84.9941 7.37109 86.4414 7.7168 87.6367 8.4082C88.8438 9.08789 89.7695 10.0371 90.4141 11.2559C91.0586 12.4629 91.4277 13.8574 91.5215 15.4395C91.5215 15.8379 91.4336 16.1191 91.2578 16.2832C91.0938 16.4473 90.8125 16.5293 90.4141 16.5293H77.6875C77.7695 18.2754 78.2852 19.5996 79.2344 20.502C80.1953 21.3926 81.5488 21.8379 83.2949 21.8379C84.373 21.8379 85.4395 21.7031 86.4941 21.4336C87.5488 21.1523 88.4746 20.7832 89.2715 20.3262C89.4707 20.2207 89.6523 20.168 89.8164 20.168C90.2266 20.168 90.5605 20.4785 90.8184 21.0996C90.9238 21.3457 90.9766 21.5684 90.9766 21.7676C90.9766 22.2363 90.7188 22.5996 90.2031 22.8574C89.3008 23.3145 88.2344 23.6836 87.0039 23.9648C85.7734 24.2461 84.5371 24.3867 83.2949 24.3867C81.5254 24.3867 80.0137 24.0469 78.7598 23.3672C77.5059 22.6875 76.5508 21.709 75.8945 20.4316C75.2383 19.1543 74.9102 17.6367 74.9102 15.8789C74.9102 14.2031 75.2676 12.7207 75.9824 11.4316C76.6973 10.1426 77.6875 9.14648 78.9531 8.44336C80.2188 7.72852 81.666 7.37109 83.2949 7.37109ZM83.2949 9.91992C81.8535 9.91992 80.6582 10.2891 79.709 11.0273C78.7715 11.7539 78.1562 12.7676 77.8633 14.0684H88.6035C88.3574 12.7207 87.7891 11.6953 86.8984 10.9922C86.0195 10.2773 84.8184 9.91992 83.2949 9.91992Z" fill="white"/>
<path d="M57.8379 0.9375C58.2363 0.9375 58.5176 1.03125 58.6816 1.21875C58.8574 1.39453 58.9453 1.69922 58.9453 2.13281V10.2715C60.457 8.33789 62.3145 7.37109 64.5176 7.37109C65.9707 7.37109 67.2715 7.7168 68.4199 8.4082C69.5684 9.08789 70.4707 10.0723 71.127 11.3613C71.7832 12.6387 72.1113 14.1445 72.1113 15.8789C72.1113 17.6133 71.7832 19.125 71.127 20.4141C70.4707 21.6914 69.5684 22.6758 68.4199 23.3672C67.2715 24.0469 65.9707 24.3867 64.5176 24.3867C63.3691 24.3867 62.3086 24.1289 61.3359 23.6133C60.3633 23.0977 59.5078 22.3594 58.7695 21.3984V22.8047C58.7695 23.2383 58.6816 23.5488 58.5059 23.7363C58.3418 23.9121 58.0605 24 57.6621 24H54.8672C54.4688 24 54.1816 23.9121 54.0059 23.7363C53.8418 23.5488 53.7598 23.2383 53.7598 22.8047C53.7598 22.3711 53.8418 22.0664 54.0059 21.8906C54.1816 21.7031 54.4688 21.6094 54.8672 21.6094H56.3086V3.32812H54.5156C54.1172 3.32812 53.8301 3.24023 53.6543 3.06445C53.4902 2.87695 53.4082 2.56641 53.4082 2.13281C53.4082 1.69922 53.4902 1.39453 53.6543 1.21875C53.8301 1.03125 54.1172 0.9375 54.5156 0.9375H57.8379ZM64.3418 9.97266C63.2988 9.97266 62.3672 10.207 61.5469 10.6758C60.7383 11.1445 60.0996 11.8242 59.6309 12.7148C59.1738 13.6055 58.9453 14.6602 58.9453 15.8789C58.9453 17.0977 59.1738 18.1523 59.6309 19.043C60.0996 19.9336 60.7383 20.6133 61.5469 21.082C62.3672 21.5508 63.2988 21.7852 64.3418 21.7852C65.3848 21.7852 66.2812 21.5391 67.0312 21.0469C67.7812 20.543 68.3496 19.8457 68.7363 18.9551C69.1348 18.0645 69.334 17.0391 69.334 15.8789C69.334 14.7188 69.1348 13.6934 68.7363 12.8027C68.3496 11.9121 67.7812 11.2207 67.0312 10.7285C66.2812 10.2246 65.3848 9.97266 64.3418 9.97266Z" fill="white"/>
<path d="M43.0352 7.37109C45.2383 7.37109 46.8906 7.86328 47.9922 8.84766C49.0938 9.83203 49.6445 11.291 49.6445 13.2246V20.2207C49.6445 21.1465 50.0312 21.6094 50.8047 21.6094H51.4199C51.8184 21.6094 52.0996 21.7031 52.2637 21.8906C52.4395 22.0664 52.5273 22.3711 52.5273 22.8047C52.5273 23.2383 52.4395 23.5488 52.2637 23.7363C52.0996 23.9121 51.8184 24 51.4199 24H50.2949C49.5332 24 48.877 23.8125 48.3262 23.4375C47.7871 23.0508 47.4355 22.4883 47.2715 21.75C46.3105 22.5938 45.2676 23.2441 44.1426 23.7012C43.0293 24.1582 41.8457 24.3867 40.5918 24.3867C39.4082 24.3867 38.3594 24.1875 37.4453 23.7891C36.543 23.3789 35.834 22.7871 35.3184 22.0137C34.8027 21.2402 34.5449 20.3203 34.5449 19.2539C34.5449 17.4023 35.207 16.0371 36.5312 15.1582C37.8555 14.2676 39.5664 13.8223 41.6641 13.8223C43.5273 13.8223 45.3086 14.1211 47.0078 14.7188V13.2246C47.0078 12.0879 46.6855 11.2559 46.041 10.7285C45.4082 10.1895 44.3828 9.91992 42.9648 9.91992C42.0859 9.91992 41.1719 10.043 40.2227 10.2891C39.2734 10.5352 38.3711 10.875 37.5156 11.3086C37.3164 11.4141 37.1348 11.4668 36.9707 11.4668C36.584 11.4668 36.2617 11.1855 36.0039 10.623C35.875 10.3418 35.8105 10.1074 35.8105 9.91992C35.8105 9.50977 36.0273 9.19336 36.4609 8.9707C37.4453 8.45508 38.5 8.0625 39.625 7.79297C40.7617 7.51172 41.8984 7.37109 43.0352 7.37109ZM41.6816 16.3008C40.334 16.3008 39.2676 16.5352 38.4824 17.0039C37.709 17.4609 37.3223 18.1934 37.3223 19.2012C37.3223 20.0566 37.6152 20.7246 38.2012 21.2051C38.7988 21.6738 39.6309 21.9082 40.6973 21.9082C43.0293 21.9082 45.1328 20.9414 47.0078 19.0078V17.0918C46.2109 16.834 45.3555 16.6406 44.4414 16.5117C43.5273 16.3711 42.6074 16.3008 41.6816 16.3008Z" fill="white"/>
<path d="M29.916 7.37109C30.3965 7.37109 30.7363 7.45898 30.9355 7.63477C31.1348 7.81055 31.2344 8.10352 31.2344 8.51367V11.8535C31.2344 12.2637 31.1348 12.5566 30.9355 12.7324C30.7363 12.9082 30.3965 12.9961 29.916 12.9961C29.5176 12.9961 29.2363 12.8438 29.0723 12.5391C28.5684 11.5781 27.8359 10.9043 26.875 10.5176C25.9141 10.1191 24.6953 9.91992 23.2188 9.91992C22.082 9.91992 21.1914 10.125 20.5469 10.5352C19.9141 10.9336 19.5977 11.4961 19.5977 12.2227C19.5977 12.5977 19.7148 12.9023 19.9492 13.1367C20.1953 13.3711 20.5527 13.5645 21.0215 13.7168C21.4082 13.8457 21.8535 13.9453 22.3574 14.0156C22.873 14.0859 23.5352 14.1621 24.3438 14.2441C25.4805 14.373 26.3945 14.4961 27.0859 14.6133C27.7891 14.7188 28.4512 14.8828 29.0723 15.1055C30.0098 15.4453 30.7363 15.9375 31.252 16.582C31.7793 17.2266 32.043 18.0762 32.043 19.1309C32.043 20.1855 31.7734 21.1113 31.2344 21.9082C30.707 22.6934 29.9277 23.3027 28.8965 23.7363C27.877 24.1699 26.6523 24.3867 25.2227 24.3867C23.957 24.3867 22.8438 24.2109 21.8828 23.8594C20.9219 23.5078 20.084 22.9746 19.3691 22.2598V23.2441C19.3691 23.6543 19.2695 23.9473 19.0703 24.123C18.8711 24.2988 18.5312 24.3867 18.0508 24.3867C17.5703 24.3867 17.2305 24.2988 17.0312 24.123C16.832 23.9473 16.7324 23.6543 16.7324 23.2441V19.0254C16.7324 18.6152 16.832 18.3223 17.0312 18.1465C17.2305 17.9707 17.5703 17.8828 18.0508 17.8828C18.2969 17.8828 18.4902 17.9414 18.6309 18.0586C18.7715 18.1641 18.8945 18.3457 19 18.6035C19.4219 19.7285 20.125 20.5488 21.1094 21.0645C22.0938 21.5801 23.4062 21.8379 25.0469 21.8379C26.4062 21.8379 27.4492 21.5918 28.1758 21.0996C28.9023 20.6074 29.2656 19.9512 29.2656 19.1309C29.2656 18.7324 29.1367 18.4043 28.8789 18.1465C28.6211 17.8887 28.252 17.6777 27.7715 17.5137C27.3613 17.3848 26.8867 17.2793 26.3477 17.1973C25.8203 17.1035 25.1465 17.0156 24.3262 16.9336C23.2246 16.8164 22.3047 16.6934 21.5664 16.5645C20.8281 16.4355 20.1484 16.248 19.5273 16.002C18.6719 15.6621 18.0039 15.1934 17.5234 14.5957C17.0547 13.9863 16.8203 13.1953 16.8203 12.2227C16.8203 11.2031 17.084 10.3301 17.6113 9.60352C18.1504 8.86523 18.8887 8.30859 19.8262 7.93359C20.7754 7.55859 21.8477 7.37109 23.043 7.37109C24.1797 7.37109 25.2168 7.54102 26.1543 7.88086C27.1035 8.2207 27.918 8.69531 28.5977 9.30469V8.51367C28.5977 8.10352 28.6973 7.81055 28.8965 7.63477C29.0957 7.45898 29.4355 7.37109 29.916 7.37109Z" fill="white"/>
<path d="M7.42578 7.75781C7.82422 7.75781 8.10547 7.85156 8.26953 8.03906C8.44531 8.21484 8.5332 8.51953 8.5332 8.95312V21.6094H13.1758C13.5742 21.6094 13.8555 21.7031 14.0195 21.8906C14.1953 22.0664 14.2832 22.3711 14.2832 22.8047C14.2832 23.2383 14.1953 23.5488 14.0195 23.7363C13.8555 23.9121 13.5742 24 13.1758 24H1.39453C0.996094 24 0.708984 23.9121 0.533203 23.7363C0.369141 23.5488 0.287109 23.2383 0.287109 22.8047C0.287109 22.3711 0.369141 22.0664 0.533203 21.8906C0.708984 21.7031 0.996094 21.6094 1.39453 21.6094H5.89648V10.1484H1.44922C1.05078 10.1484 0.763672 10.0605 0.587891 9.88477C0.423828 9.69727 0.341797 9.38672 0.341797 8.95312C0.341797 8.51953 0.423828 8.21484 0.587891 8.03906C0.763672 7.85156 1.05078 7.75781 1.44922 7.75781H7.42578ZM6.86328 0.0410156C7.50781 0.0410156 7.94727 0.128906 8.18164 0.304688C8.41602 0.46875 8.5332 0.761719 8.5332 1.18359V3.46875C8.5332 3.89062 8.41602 4.18945 8.18164 4.36523C7.94727 4.5293 7.50781 4.61133 6.86328 4.61133C6.21875 4.61133 5.7793 4.5293 5.54492 4.36523C5.31055 4.18945 5.19336 3.89062 5.19336 3.46875V1.18359C5.19336 0.761719 5.31055 0.46875 5.54492 0.304688C5.7793 0.128906 6.21875 0.0410156 6.86328 0.0410156Z" fill="white"/>
</svg>
