<svg width="31" height="31" viewBox="0 0 31 31" fill="none" xmlns="http://www.w3.org/2000/svg">
<path d="M10.7689 19.0602C11.5282 19.0602 12.0115 19.1328 12.2185 19.2781C12.4355 19.4137 12.544 19.6753 12.544 20.0628C12.544 20.46 12.4355 20.7361 12.2185 20.8911C12.0115 21.0364 11.5282 21.1091 10.7689 21.1091H1.09464C0.739621 21.1091 0.468427 21.0219 0.281056 20.8475C0.0936854 20.6731 0 20.4116 0 20.0628C0 19.6753 0.108478 19.4137 0.325433 19.2781C0.542389 19.1328 1.03054 19.0602 1.78988 19.0602H5.13297V5.9675H1.78988C1.05026 5.9675 0.567043 5.89484 0.340226 5.74953C0.113409 5.59453 0 5.31844 0 4.92125C0 4.56281 0.0936854 4.30125 0.281056 4.13656C0.468427 3.96219 0.749483 3.875 1.12422 3.875H11.4641C11.8191 3.875 12.0854 3.96219 12.2629 4.13656C12.4503 4.31094 12.544 4.5725 12.544 4.92125C12.544 5.31844 12.4306 5.59453 12.2038 5.74953C11.9868 5.89484 11.5085 5.9675 10.7689 5.9675H7.4258V19.0602H10.7689Z" fill="#D8D8D6"/>
<path d="M19.669 19.0602C19.9846 19.0892 20.2952 19.1134 20.6009 19.1328C20.9165 19.1425 21.2222 19.1473 21.5181 19.1473C23.944 19.1473 25.7191 18.6145 26.8433 17.5489C27.9774 16.4833 28.5445 14.8025 28.5445 12.5066C28.5445 10.2009 27.9774 8.525 26.8433 7.47875C25.7092 6.42281 23.8947 5.89484 21.3997 5.89484C20.9362 5.89484 20.5812 5.89969 20.3347 5.90937C20.098 5.91906 19.8761 5.93844 19.669 5.9675V19.0602ZM19.669 21.1091H16.6661C16.3013 21.1091 16.0251 21.0219 15.8378 20.8475C15.6603 20.6731 15.5715 20.4116 15.5715 20.0628C15.5715 19.685 15.675 19.4234 15.8821 19.2781C16.0991 19.1328 16.5034 19.0602 17.0951 19.0602H17.3614V5.9675H17.1247C16.533 5.9675 16.1237 5.89 15.8969 5.735C15.68 5.58 15.5715 5.30875 15.5715 4.92125C15.5715 4.56281 15.6603 4.30125 15.8378 4.13656C16.0251 3.96219 16.3111 3.875 16.6957 3.875H22.9381C25.3937 3.875 27.3512 4.65484 28.8107 6.21453C30.2702 7.76453 31 9.86187 31 12.5066C31 13.795 30.788 14.9914 30.3639 16.0958C29.9497 17.2002 29.3432 18.1689 28.5445 19.002C27.8048 19.7577 26.9025 20.3098 25.8374 20.6586C24.7822 20.9977 23.4213 21.1672 21.7547 21.1672C21.5575 21.1672 21.2222 21.1575 20.7488 21.1381C20.2854 21.1187 19.9254 21.1091 19.669 21.1091Z" fill="#D8D8D6"/>
<path fill-rule="evenodd" clip-rule="evenodd" d="M7.8893 26.195C7.8893 25.6814 8.31315 25.265 8.83601 25.265H18.9343C19.4572 25.265 19.881 25.6814 19.881 26.195C19.881 26.7086 19.4572 27.125 18.9343 27.125H8.83601C8.31315 27.125 7.8893 26.7086 7.8893 26.195Z" fill="#D8D8D6"/>
</svg>
